<svg width="241" height="241" viewBox="0 0 241 241" fill="none" xmlns="http://www.w3.org/2000/svg">
<g clip-path="url(#clip0_671_629)">
<rect width="241" height="241" rx="42" fill="black"/>
<path d="M121.134 39.002C122.265 39.0148 123.384 39.2426 124.43 39.6758C125.507 40.122 126.485 40.7762 127.31 41.6006L211.566 125.856C213.231 127.521 214.167 129.779 214.167 132.134C214.167 134.488 213.231 136.746 211.566 138.411L159.622 190.356L153.827 184.562C145.634 176.887 132.397 154.232 150.131 135.307C150.543 134.894 150.87 134.405 151.093 133.866C151.316 133.328 151.432 132.75 151.432 132.167C151.432 131.584 151.316 131.007 151.093 130.469C150.87 129.93 150.543 129.441 150.131 129.028L124.139 103.035C123.326 102.223 122.23 101.759 121.083 101.737C119.936 101.759 118.841 102.223 118.028 103.035L92.0361 129.028C91.6239 129.441 91.2973 129.93 91.0742 130.469C90.8512 131.007 90.7354 131.584 90.7354 132.167C90.7354 132.75 90.8511 133.328 91.0742 133.866C91.2973 134.405 91.6239 134.894 92.0361 135.307C109.77 154.232 96.5328 176.887 88.3398 184.562L82.5449 190.356L30.6006 138.411C28.9358 136.746 28 134.488 28 132.134C28 129.779 28.9358 127.521 30.6006 125.856L114.857 41.6006C115.682 40.7762 116.66 40.122 117.737 39.6758C118.783 39.2427 119.901 39.0149 121.032 39.002L121.033 39C121.05 39 121.066 39.0009 121.083 39.001C121.1 39.0009 121.117 39 121.134 39V39.002Z" fill="#0EA5E9"/>
</g>
<defs>
<clipPath id="clip0_671_629">
<rect width="241" height="241" fill="white"/>
</clipPath>
</defs>
</svg>
