<svg width="838" height="321" viewBox="0 0 838 321" fill="none" xmlns="http://www.w3.org/2000/svg">
<path d="M234.4 197L265.12 111.8H279.04L309.76 197H298.48L289.96 172.76H254.2L245.68 197H234.4ZM257.68 162.68H286.48L272.08 120.8L257.68 162.68ZM319.413 197V133.4H328.653L328.893 144.8C330.573 140.4 333.133 137.16 336.573 135.08C340.093 133 344.053 131.96 348.453 131.96C353.333 131.96 357.333 133.04 360.453 135.2C363.653 137.36 366.013 140.28 367.533 143.96C369.133 147.56 369.933 151.6 369.933 156.08V197H359.853V158.96C359.853 153.04 358.773 148.56 356.613 145.52C354.533 142.4 351.093 140.84 346.293 140.84C341.413 140.84 337.373 142.4 334.173 145.52C331.053 148.56 329.493 153.04 329.493 158.96V197H319.413ZM387.798 215V206.12H395.118C397.358 206.12 398.998 205.76 400.038 205.04C401.158 204.4 401.998 203.32 402.558 201.8L404.838 195.8H401.358L378.078 133.4H389.118L408.078 186.44L426.198 133.4H437.238L411.438 205.04C410.238 208.48 408.438 211 406.038 212.6C403.638 214.2 400.318 215 396.078 215H387.798ZM478.453 198.92C471.893 198.92 466.173 197.68 461.293 195.2C456.413 192.72 452.533 189.32 449.653 185C446.853 180.6 445.213 175.52 444.733 169.76L455.533 169.04C456.413 175.36 458.773 180.24 462.613 183.68C466.533 187.12 471.893 188.84 478.693 188.84C484.613 188.84 489.213 187.72 492.493 185.48C495.853 183.16 497.533 179.8 497.533 175.4C497.533 172.76 496.893 170.44 495.613 168.44C494.413 166.36 492.053 164.48 488.533 162.8C485.093 161.04 479.973 159.32 473.173 157.64C466.613 155.96 461.373 154.12 457.453 152.12C453.613 150.12 450.813 147.68 449.053 144.8C447.373 141.92 446.533 138.36 446.533 134.12C446.533 129.32 447.653 125.12 449.893 121.52C452.213 117.84 455.493 115 459.733 113C463.973 110.92 469.013 109.88 474.853 109.88C481.093 109.88 486.453 111.08 490.933 113.48C495.413 115.8 498.973 119 501.613 123.08C504.253 127.16 505.893 131.8 506.533 137L495.733 137.72C495.013 132.52 492.893 128.28 489.373 125C485.933 121.64 481.013 119.96 474.613 119.96C469.333 119.96 465.133 121.24 462.013 123.8C458.893 126.28 457.333 129.56 457.333 133.64C457.333 136.28 457.933 138.48 459.133 140.24C460.413 141.92 462.653 143.44 465.853 144.8C469.053 146.08 473.653 147.48 479.653 149C486.773 150.76 492.413 152.88 496.573 155.36C500.813 157.76 503.813 160.56 505.573 163.76C507.413 166.96 508.333 170.6 508.333 174.68C508.333 179.64 507.053 183.96 504.493 187.64C501.933 191.24 498.413 194.04 493.933 196.04C489.453 197.96 484.293 198.92 478.453 198.92ZM550.971 198.44C545.051 198.44 539.891 197.08 535.491 194.36C531.171 191.64 527.811 187.8 525.411 182.84C523.011 177.8 521.811 171.92 521.811 165.2C521.811 158.48 523.011 152.64 525.411 147.68C527.811 142.72 531.171 138.88 535.491 136.16C539.891 133.36 545.051 131.96 550.971 131.96C558.331 131.96 564.411 133.88 569.211 137.72C574.011 141.48 576.931 146.92 577.971 154.04L567.411 154.76C566.691 150.52 564.851 147.28 561.891 145.04C558.931 142.72 555.291 141.56 550.971 141.56C545.131 141.56 540.571 143.68 537.291 147.92C534.011 152.08 532.371 157.84 532.371 165.2C532.371 172.56 534.011 178.36 537.291 182.6C540.571 186.76 545.131 188.84 550.971 188.84C555.291 188.84 558.931 187.64 561.891 185.24C564.851 182.84 566.691 179.24 567.411 174.44L577.971 175.16C576.931 182.2 574.011 187.84 569.211 192.08C564.411 196.32 558.331 198.44 550.971 198.44ZM590.467 197V111.8H600.547V143.36C602.227 139.44 604.747 136.56 608.107 134.72C611.467 132.88 615.347 131.96 619.747 131.96C626.627 131.96 631.867 134.2 635.467 138.68C639.147 143.16 640.987 148.96 640.987 156.08V197H630.907V158.96C630.907 146.88 626.467 140.84 617.587 140.84C612.467 140.84 608.347 142.4 605.227 145.52C602.107 148.64 600.547 153.16 600.547 159.08V197H590.467ZM683.628 198.44C677.788 198.44 672.668 197.08 668.268 194.36C663.868 191.64 660.468 187.8 658.068 182.84C655.668 177.8 654.468 171.92 654.468 165.2C654.468 158.4 655.668 152.52 658.068 147.56C660.468 142.6 663.868 138.76 668.268 136.04C672.668 133.32 677.788 131.96 683.628 131.96C689.468 131.96 694.548 133.32 698.868 136.04C703.268 138.76 706.668 142.6 709.068 147.56C711.468 152.52 712.668 158.4 712.668 165.2C712.668 171.92 711.468 177.8 709.068 182.84C706.668 187.8 703.268 191.64 698.868 194.36C694.548 197.08 689.468 198.44 683.628 198.44ZM683.628 188.84C689.468 188.84 693.988 186.76 697.188 182.6C700.468 178.36 702.108 172.56 702.108 165.2C702.108 157.84 700.468 152.08 697.188 147.92C693.988 143.68 689.468 141.56 683.628 141.56C677.788 141.56 673.228 143.68 669.948 147.92C666.668 152.08 665.027 157.84 665.027 165.2C665.027 172.56 666.668 178.36 669.948 182.6C673.228 186.76 677.788 188.84 683.628 188.84ZM751.245 198.44C745.405 198.44 740.285 197.08 735.885 194.36C731.485 191.64 728.085 187.8 725.685 182.84C723.285 177.8 722.085 171.92 722.085 165.2C722.085 158.4 723.285 152.52 725.685 147.56C728.085 142.6 731.485 138.76 735.885 136.04C740.285 133.32 745.405 131.96 751.245 131.96C757.085 131.96 762.165 133.32 766.485 136.04C770.885 138.76 774.285 142.6 776.685 147.56C779.085 152.52 780.285 158.4 780.285 165.2C780.285 171.92 779.085 177.8 776.685 182.84C774.285 187.8 770.885 191.64 766.485 194.36C762.165 197.08 757.085 198.44 751.245 198.44ZM751.245 188.84C757.085 188.84 761.605 186.76 764.805 182.6C768.085 178.36 769.725 172.56 769.725 165.2C769.725 157.84 768.085 152.08 764.805 147.92C761.605 143.68 757.085 141.56 751.245 141.56C745.405 141.56 740.845 143.68 737.565 147.92C734.285 152.08 732.645 157.84 732.645 165.2C732.645 172.56 734.285 178.36 737.565 182.6C740.845 186.76 745.405 188.84 751.245 188.84ZM807.088 197C803.408 197 800.408 196.04 798.088 194.12C795.768 192.2 794.608 189.16 794.608 185V111.8H804.688V184.16C804.688 186.8 806.008 188.12 808.648 188.12H814.168V197H807.088Z" fill="black"/>
<rect y="39" width="224" height="224" rx="42" fill="black"/>
<path d="M112.589 75.2539C113.64 75.2659 114.68 75.4773 115.652 75.8799C116.653 76.2946 117.563 76.9027 118.329 77.6689L196.643 155.981C198.19 157.529 199.059 159.628 199.059 161.816C199.058 164.004 198.19 166.103 196.643 167.65L148.361 215.932L142.976 210.545C135.361 203.411 123.057 182.355 139.54 164.765C139.923 164.382 140.227 163.927 140.435 163.427C140.642 162.926 140.749 162.389 140.749 161.848C140.749 161.306 140.642 160.769 140.435 160.269C140.227 159.768 139.923 159.313 139.54 158.93L115.382 134.771C114.626 134.015 113.607 133.583 112.541 133.563C111.475 133.584 110.457 134.015 109.702 134.771L85.543 158.93C85.16 159.313 84.8557 159.768 84.6484 160.269C84.4413 160.769 84.335 161.306 84.335 161.848C84.335 162.389 84.4412 162.926 84.6484 163.427C84.8558 163.927 85.16 164.382 85.543 164.765C102.026 182.354 89.7235 203.411 82.1084 210.545L76.7217 215.932L28.4404 167.65C26.8935 166.103 26.0246 164.004 26.0244 161.816C26.0244 159.628 26.8934 157.529 28.4404 155.981L106.755 77.6689C107.521 76.9028 108.431 76.2946 109.432 75.8799C110.403 75.4775 111.442 75.2661 112.493 75.2539L112.494 75.252C112.51 75.252 112.526 75.2528 112.541 75.2529C112.557 75.2528 112.573 75.252 112.589 75.252V75.2539Z" fill="#0EA5E9"/>
</svg>
