<svg width="838" height="321" viewBox="0 0 838 321" fill="none" xmlns="http://www.w3.org/2000/svg">
<g clip-path="url(#clip0_671_587)">
<path fill-rule="evenodd" clip-rule="evenodd" d="M184.043 217.199V217.18L60.5 92.9004C42.678 110.723 -3.86401 91.8676 54.5 151.31C112.864 210.752 100.163 197.641 100.163 197.641L100.097 197.708L122.312 219.922C123.119 220.729 123.653 221.843 123.653 223.074C123.653 224.339 123.063 225.46 122.216 226.271L96.3061 252.181C95.4735 253.013 94.3444 253.481 93.1671 253.481C91.9898 253.481 90.8607 253.013 90.0281 252.181L64.0361 226.188C63.6239 225.775 63.2968 225.286 63.0737 224.747C62.8506 224.209 62.7358 223.632 62.7358 223.049C62.7358 222.466 62.8506 221.888 63.0737 221.35C63.2968 220.811 63.6239 220.322 64.0361 219.91C81.7701 200.985 68.5331 178.33 60.3401 170.655L54.5451 164.86L2.6001 216.805C0.935268 218.47 0 220.728 0 223.082C0 225.437 0.935268 227.695 2.6001 229.36L86.8571 313.617C87.6814 314.441 88.6599 315.095 89.7369 315.541C90.814 315.987 91.9683 316.217 93.1341 316.217C94.2999 316.217 95.4543 315.987 96.5313 315.541C97.6083 315.095 98.5869 314.441 99.4111 313.617L183.488 229.54C184.425 228.751 185.177 227.767 185.693 226.657C186.209 225.547 186.476 224.338 186.475 223.114C186.477 220.898 185.603 218.772 184.043 217.199Z" fill="#0EA5E9"/>
<path d="M93.1338 0.00195312C94.2651 0.0148206 95.3838 0.242558 96.4297 0.675781C97.5067 1.12196 98.4853 1.77616 99.3096 2.60059L183.566 86.8564C185.231 88.5213 186.167 90.7793 186.167 93.1338C186.167 95.4883 185.231 97.7462 183.566 99.4111L131.622 151.356L125.827 145.562C117.634 137.887 104.397 115.232 122.131 96.3066C122.543 95.8945 122.87 95.4048 123.093 94.8662C123.316 94.3276 123.432 93.75 123.432 93.167C123.432 92.5842 123.316 92.0072 123.093 91.4688C122.87 90.9302 122.543 90.4405 122.131 90.0283L96.1387 64.0352C95.3257 63.2226 94.2301 62.7588 93.083 62.7373C91.9363 62.759 90.8411 63.2228 90.0283 64.0352L64.0361 90.0283C63.6239 90.4405 63.2973 90.9302 63.0742 91.4688C62.8512 92.0072 62.7354 92.5842 62.7354 93.167C62.7354 93.75 62.8511 94.3276 63.0742 94.8662C63.2973 95.4048 63.6239 95.8945 64.0361 96.3066C81.77 115.232 68.5328 137.887 60.3398 145.562L54.5449 151.356L2.60059 99.4111C0.935757 97.7462 -2.05837e-07 95.4883 0 93.1338C3.55621e-05 90.7793 0.935788 88.5213 2.60059 86.8564L86.8574 2.60059C87.6817 1.77616 88.6603 1.12196 89.7373 0.675781C90.7828 0.242682 91.9012 0.0149413 93.0322 0.00195312L93.0332 0C93.0498 6.51306e-07 93.0664 0.000882754 93.083 0.000976562C93.0999 0.000879053 93.1169 6.64079e-07 93.1338 0V0.00195312Z" fill="#BAE6FD"/>
<path d="M204.4 194L235.12 108.8H249.04L279.76 194H268.48L259.96 169.76H224.2L215.68 194H204.4ZM227.68 159.68H256.48L242.08 117.8L227.68 159.68ZM289.413 194V130.4H298.653L298.893 141.8C300.573 137.4 303.133 134.16 306.573 132.08C310.093 130 314.053 128.96 318.453 128.96C323.333 128.96 327.333 130.04 330.453 132.2C333.653 134.36 336.013 137.28 337.533 140.96C339.133 144.56 339.933 148.6 339.933 153.08V194H329.853V155.96C329.853 150.04 328.773 145.56 326.613 142.52C324.533 139.4 321.093 137.84 316.293 137.84C311.413 137.84 307.373 139.4 304.173 142.52C301.053 145.56 299.493 150.04 299.493 155.96V194H289.413ZM357.798 212V203.12H365.118C367.358 203.12 368.998 202.76 370.038 202.04C371.158 201.4 371.998 200.32 372.558 198.8L374.838 192.8H371.358L348.078 130.4H359.118L378.078 183.44L396.198 130.4H407.238L381.438 202.04C380.238 205.48 378.438 208 376.038 209.6C373.638 211.2 370.318 212 366.078 212H357.798ZM448.453 195.92C441.893 195.92 436.173 194.68 431.293 192.2C426.413 189.72 422.533 186.32 419.653 182C416.853 177.6 415.213 172.52 414.733 166.76L425.533 166.04C426.413 172.36 428.773 177.24 432.613 180.68C436.533 184.12 441.893 185.84 448.693 185.84C454.613 185.84 459.213 184.72 462.493 182.48C465.853 180.16 467.533 176.8 467.533 172.4C467.533 169.76 466.893 167.44 465.613 165.44C464.413 163.36 462.053 161.48 458.533 159.8C455.093 158.04 449.973 156.32 443.173 154.64C436.613 152.96 431.373 151.12 427.453 149.12C423.613 147.12 420.813 144.68 419.053 141.8C417.373 138.92 416.533 135.36 416.533 131.12C416.533 126.32 417.653 122.12 419.893 118.52C422.213 114.84 425.493 112 429.733 110C433.973 107.92 439.013 106.88 444.853 106.88C451.093 106.88 456.453 108.08 460.933 110.48C465.413 112.8 468.973 116 471.613 120.08C474.253 124.16 475.893 128.8 476.533 134L465.733 134.72C465.013 129.52 462.893 125.28 459.373 122C455.933 118.64 451.013 116.96 444.613 116.96C439.333 116.96 435.133 118.24 432.013 120.8C428.893 123.28 427.333 126.56 427.333 130.64C427.333 133.28 427.933 135.48 429.133 137.24C430.413 138.92 432.653 140.44 435.853 141.8C439.053 143.08 443.653 144.48 449.653 146C456.773 147.76 462.413 149.88 466.573 152.36C470.813 154.76 473.813 157.56 475.573 160.76C477.413 163.96 478.333 167.6 478.333 171.68C478.333 176.64 477.053 180.96 474.493 184.64C471.933 188.24 468.413 191.04 463.933 193.04C459.453 194.96 454.293 195.92 448.453 195.92ZM520.971 195.44C515.051 195.44 509.891 194.08 505.491 191.36C501.171 188.64 497.811 184.8 495.411 179.84C493.011 174.8 491.811 168.92 491.811 162.2C491.811 155.48 493.011 149.64 495.411 144.68C497.811 139.72 501.171 135.88 505.491 133.16C509.891 130.36 515.051 128.96 520.971 128.96C528.331 128.96 534.411 130.88 539.211 134.72C544.011 138.48 546.931 143.92 547.971 151.04L537.411 151.76C536.691 147.52 534.851 144.28 531.891 142.04C528.931 139.72 525.291 138.56 520.971 138.56C515.131 138.56 510.571 140.68 507.291 144.92C504.011 149.08 502.371 154.84 502.371 162.2C502.371 169.56 504.011 175.36 507.291 179.6C510.571 183.76 515.131 185.84 520.971 185.84C525.291 185.84 528.931 184.64 531.891 182.24C534.851 179.84 536.691 176.24 537.411 171.44L547.971 172.16C546.931 179.2 544.011 184.84 539.211 189.08C534.411 193.32 528.331 195.44 520.971 195.44ZM560.467 194V108.8H570.547V140.36C572.227 136.44 574.747 133.56 578.107 131.72C581.467 129.88 585.347 128.96 589.747 128.96C596.627 128.96 601.867 131.2 605.467 135.68C609.147 140.16 610.987 145.96 610.987 153.08V194H600.907V155.96C600.907 143.88 596.467 137.84 587.587 137.84C582.467 137.84 578.347 139.4 575.227 142.52C572.107 145.64 570.547 150.16 570.547 156.08V194H560.467ZM653.628 195.44C647.788 195.44 642.668 194.08 638.268 191.36C633.868 188.64 630.468 184.8 628.068 179.84C625.668 174.8 624.468 168.92 624.468 162.2C624.468 155.4 625.668 149.52 628.068 144.56C630.468 139.6 633.868 135.76 638.268 133.04C642.668 130.32 647.788 128.96 653.628 128.96C659.468 128.96 664.548 130.32 668.868 133.04C673.268 135.76 676.668 139.6 679.068 144.56C681.468 149.52 682.668 155.4 682.668 162.2C682.668 168.92 681.468 174.8 679.068 179.84C676.668 184.8 673.268 188.64 668.868 191.36C664.548 194.08 659.468 195.44 653.628 195.44ZM653.628 185.84C659.468 185.84 663.988 183.76 667.188 179.6C670.468 175.36 672.108 169.56 672.108 162.2C672.108 154.84 670.468 149.08 667.188 144.92C663.988 140.68 659.468 138.56 653.628 138.56C647.788 138.56 643.228 140.68 639.948 144.92C636.668 149.08 635.027 154.84 635.027 162.2C635.027 169.56 636.668 175.36 639.948 179.6C643.228 183.76 647.788 185.84 653.628 185.84ZM721.245 195.44C715.405 195.44 710.285 194.08 705.885 191.36C701.485 188.64 698.085 184.8 695.685 179.84C693.285 174.8 692.085 168.92 692.085 162.2C692.085 155.4 693.285 149.52 695.685 144.56C698.085 139.6 701.485 135.76 705.885 133.04C710.285 130.32 715.405 128.96 721.245 128.96C727.085 128.96 732.165 130.32 736.485 133.04C740.885 135.76 744.285 139.6 746.685 144.56C749.085 149.52 750.285 155.4 750.285 162.2C750.285 168.92 749.085 174.8 746.685 179.84C744.285 184.8 740.885 188.64 736.485 191.36C732.165 194.08 727.085 195.44 721.245 195.44ZM721.245 185.84C727.085 185.84 731.605 183.76 734.805 179.6C738.085 175.36 739.725 169.56 739.725 162.2C739.725 154.84 738.085 149.08 734.805 144.92C731.605 140.68 727.085 138.56 721.245 138.56C715.405 138.56 710.845 140.68 707.565 144.92C704.285 149.08 702.645 154.84 702.645 162.2C702.645 169.56 704.285 175.36 707.565 179.6C710.845 183.76 715.405 185.84 721.245 185.84ZM777.088 194C773.408 194 770.408 193.04 768.088 191.12C765.768 189.2 764.608 186.16 764.608 182V108.8H774.688V181.16C774.688 183.8 776.008 185.12 778.648 185.12H784.168V194H777.088Z" fill="white"/>
</g>
<defs>
<clipPath id="clip0_671_587">
<rect width="838" height="321" fill="white"/>
</clipPath>
</defs>
</svg>
