<svg width="838" height="321" viewBox="0 0 838 321" fill="none" xmlns="http://www.w3.org/2000/svg">
<g clip-path="url(#clip0_671_621)">
<path fill-rule="evenodd" clip-rule="evenodd" d="M184.043 220.199V220.18L60.5 95.9004C42.678 113.723 -3.86401 94.8676 54.5 154.31C112.864 213.752 100.163 200.641 100.163 200.641L100.097 200.708L122.312 222.922C123.119 223.729 123.653 224.843 123.653 226.074C123.653 227.339 123.063 228.46 122.216 229.271L96.3061 255.181C95.4735 256.013 94.3444 256.481 93.1671 256.481C91.9898 256.481 90.8607 256.013 90.0281 255.181L64.0361 229.188C63.6239 228.775 63.2968 228.286 63.0737 227.747C62.8506 227.209 62.7358 226.632 62.7358 226.049C62.7358 225.466 62.8506 224.888 63.0737 224.35C63.2968 223.811 63.6239 223.322 64.0361 222.91C81.7701 203.985 68.5331 181.33 60.3401 173.655L54.5451 167.86L2.6001 219.805C0.935268 221.47 0 223.728 0 226.082C0 228.437 0.935268 230.695 2.6001 232.36L86.8571 316.617C87.6814 317.441 88.6599 318.095 89.7369 318.541C90.814 318.987 91.9683 319.217 93.1341 319.217C94.2999 319.217 95.4543 318.987 96.5313 318.541C97.6083 318.095 98.5869 317.441 99.4111 316.617L183.488 232.54C184.425 231.751 185.177 230.767 185.693 229.657C186.209 228.547 186.476 227.338 186.475 226.114C186.477 223.898 185.603 221.772 184.043 220.199Z" fill="#075985"/>
<path d="M93.1338 3.00195C94.2651 3.01482 95.3838 3.24256 96.4297 3.67578C97.5067 4.12196 98.4853 4.77616 99.3096 5.60059L183.566 89.8564C185.231 91.5213 186.167 93.7793 186.167 96.1338C186.167 98.4883 185.231 100.746 183.566 102.411L131.622 154.356L125.827 148.562C117.634 140.887 104.397 118.232 122.131 99.3066C122.543 98.8945 122.87 98.4048 123.093 97.8662C123.316 97.3276 123.432 96.75 123.432 96.167C123.432 95.5842 123.316 95.0072 123.093 94.4688C122.87 93.9302 122.543 93.4405 122.131 93.0283L96.1387 67.0352C95.3257 66.2226 94.2301 65.7588 93.083 65.7373C91.9363 65.759 90.8411 66.2228 90.0283 67.0352L64.0361 93.0283C63.6239 93.4405 63.2973 93.9302 63.0742 94.4688C62.8512 95.0072 62.7354 95.5842 62.7354 96.167C62.7354 96.75 62.8511 97.3276 63.0742 97.8662C63.2973 98.4048 63.6239 98.8945 64.0361 99.3066C81.77 118.232 68.5328 140.887 60.3398 148.562L54.5449 154.356L2.60059 102.411C0.935757 100.746 -2.05835e-07 98.4883 0 96.1338C3.55621e-05 93.7793 0.935788 91.5213 2.60059 89.8564L86.8574 5.60059C87.6817 4.77616 88.6603 4.12196 89.7373 3.67578C90.7828 3.24268 91.9012 3.01494 93.0322 3.00195L93.0332 3C93.0498 3 93.0664 3.00088 93.083 3.00098C93.0999 3.00088 93.1169 3 93.1338 3V3.00195Z" fill="#0EA5E9"/>
<path d="M204.4 197L235.12 111.8H249.04L279.76 197H268.48L259.96 172.76H224.2L215.68 197H204.4ZM227.68 162.68H256.48L242.08 120.8L227.68 162.68ZM289.413 197V133.4H298.653L298.893 144.8C300.573 140.4 303.133 137.16 306.573 135.08C310.093 133 314.053 131.96 318.453 131.96C323.333 131.96 327.333 133.04 330.453 135.2C333.653 137.36 336.013 140.28 337.533 143.96C339.133 147.56 339.933 151.6 339.933 156.08V197H329.853V158.96C329.853 153.04 328.773 148.56 326.613 145.52C324.533 142.4 321.093 140.84 316.293 140.84C311.413 140.84 307.373 142.4 304.173 145.52C301.053 148.56 299.493 153.04 299.493 158.96V197H289.413ZM357.798 215V206.12H365.118C367.358 206.12 368.998 205.76 370.038 205.04C371.158 204.4 371.998 203.32 372.558 201.8L374.838 195.8H371.358L348.078 133.4H359.118L378.078 186.44L396.198 133.4H407.238L381.438 205.04C380.238 208.48 378.438 211 376.038 212.6C373.638 214.2 370.318 215 366.078 215H357.798ZM448.453 198.92C441.893 198.92 436.173 197.68 431.293 195.2C426.413 192.72 422.533 189.32 419.653 185C416.853 180.6 415.213 175.52 414.733 169.76L425.533 169.04C426.413 175.36 428.773 180.24 432.613 183.68C436.533 187.12 441.893 188.84 448.693 188.84C454.613 188.84 459.213 187.72 462.493 185.48C465.853 183.16 467.533 179.8 467.533 175.4C467.533 172.76 466.893 170.44 465.613 168.44C464.413 166.36 462.053 164.48 458.533 162.8C455.093 161.04 449.973 159.32 443.173 157.64C436.613 155.96 431.373 154.12 427.453 152.12C423.613 150.12 420.813 147.68 419.053 144.8C417.373 141.92 416.533 138.36 416.533 134.12C416.533 129.32 417.653 125.12 419.893 121.52C422.213 117.84 425.493 115 429.733 113C433.973 110.92 439.013 109.88 444.853 109.88C451.093 109.88 456.453 111.08 460.933 113.48C465.413 115.8 468.973 119 471.613 123.08C474.253 127.16 475.893 131.8 476.533 137L465.733 137.72C465.013 132.52 462.893 128.28 459.373 125C455.933 121.64 451.013 119.96 444.613 119.96C439.333 119.96 435.133 121.24 432.013 123.8C428.893 126.28 427.333 129.56 427.333 133.64C427.333 136.28 427.933 138.48 429.133 140.24C430.413 141.92 432.653 143.44 435.853 144.8C439.053 146.08 443.653 147.48 449.653 149C456.773 150.76 462.413 152.88 466.573 155.36C470.813 157.76 473.813 160.56 475.573 163.76C477.413 166.96 478.333 170.6 478.333 174.68C478.333 179.64 477.053 183.96 474.493 187.64C471.933 191.24 468.413 194.04 463.933 196.04C459.453 197.96 454.293 198.92 448.453 198.92ZM520.971 198.44C515.051 198.44 509.891 197.08 505.491 194.36C501.171 191.64 497.811 187.8 495.411 182.84C493.011 177.8 491.811 171.92 491.811 165.2C491.811 158.48 493.011 152.64 495.411 147.68C497.811 142.72 501.171 138.88 505.491 136.16C509.891 133.36 515.051 131.96 520.971 131.96C528.331 131.96 534.411 133.88 539.211 137.72C544.011 141.48 546.931 146.92 547.971 154.04L537.411 154.76C536.691 150.52 534.851 147.28 531.891 145.04C528.931 142.72 525.291 141.56 520.971 141.56C515.131 141.56 510.571 143.68 507.291 147.92C504.011 152.08 502.371 157.84 502.371 165.2C502.371 172.56 504.011 178.36 507.291 182.6C510.571 186.76 515.131 188.84 520.971 188.84C525.291 188.84 528.931 187.64 531.891 185.24C534.851 182.84 536.691 179.24 537.411 174.44L547.971 175.16C546.931 182.2 544.011 187.84 539.211 192.08C534.411 196.32 528.331 198.44 520.971 198.44ZM560.467 197V111.8H570.547V143.36C572.227 139.44 574.747 136.56 578.107 134.72C581.467 132.88 585.347 131.96 589.747 131.96C596.627 131.96 601.867 134.2 605.467 138.68C609.147 143.16 610.987 148.96 610.987 156.08V197H600.907V158.96C600.907 146.88 596.467 140.84 587.587 140.84C582.467 140.84 578.347 142.4 575.227 145.52C572.107 148.64 570.547 153.16 570.547 159.08V197H560.467ZM653.628 198.44C647.788 198.44 642.668 197.08 638.268 194.36C633.868 191.64 630.468 187.8 628.068 182.84C625.668 177.8 624.468 171.92 624.468 165.2C624.468 158.4 625.668 152.52 628.068 147.56C630.468 142.6 633.868 138.76 638.268 136.04C642.668 133.32 647.788 131.96 653.628 131.96C659.468 131.96 664.548 133.32 668.868 136.04C673.268 138.76 676.668 142.6 679.068 147.56C681.468 152.52 682.668 158.4 682.668 165.2C682.668 171.92 681.468 177.8 679.068 182.84C676.668 187.8 673.268 191.64 668.868 194.36C664.548 197.08 659.468 198.44 653.628 198.44ZM653.628 188.84C659.468 188.84 663.988 186.76 667.188 182.6C670.468 178.36 672.108 172.56 672.108 165.2C672.108 157.84 670.468 152.08 667.188 147.92C663.988 143.68 659.468 141.56 653.628 141.56C647.788 141.56 643.228 143.68 639.948 147.92C636.668 152.08 635.027 157.84 635.027 165.2C635.027 172.56 636.668 178.36 639.948 182.6C643.228 186.76 647.788 188.84 653.628 188.84ZM721.245 198.44C715.405 198.44 710.285 197.08 705.885 194.36C701.485 191.64 698.085 187.8 695.685 182.84C693.285 177.8 692.085 171.92 692.085 165.2C692.085 158.4 693.285 152.52 695.685 147.56C698.085 142.6 701.485 138.76 705.885 136.04C710.285 133.32 715.405 131.96 721.245 131.96C727.085 131.96 732.165 133.32 736.485 136.04C740.885 138.76 744.285 142.6 746.685 147.56C749.085 152.52 750.285 158.4 750.285 165.2C750.285 171.92 749.085 177.8 746.685 182.84C744.285 187.8 740.885 191.64 736.485 194.36C732.165 197.08 727.085 198.44 721.245 198.44ZM721.245 188.84C727.085 188.84 731.605 186.76 734.805 182.6C738.085 178.36 739.725 172.56 739.725 165.2C739.725 157.84 738.085 152.08 734.805 147.92C731.605 143.68 727.085 141.56 721.245 141.56C715.405 141.56 710.845 143.68 707.565 147.92C704.285 152.08 702.645 157.84 702.645 165.2C702.645 172.56 704.285 178.36 707.565 182.6C710.845 186.76 715.405 188.84 721.245 188.84ZM777.088 197C773.408 197 770.408 196.04 768.088 194.12C765.768 192.2 764.608 189.16 764.608 185V111.8H774.688V184.16C774.688 186.8 776.008 188.12 778.648 188.12H784.168V197H777.088Z" fill="black"/>
</g>
<defs>
<clipPath id="clip0_671_621">
<rect width="838" height="321" fill="white"/>
</clipPath>
</defs>
</svg>
