<svg width="838" height="321" viewBox="0 0 838 321" fill="none" xmlns="http://www.w3.org/2000/svg">
<path d="M234.4 194L265.12 108.8H279.04L309.76 194H298.48L289.96 169.76H254.2L245.68 194H234.4ZM257.68 159.68H286.48L272.08 117.8L257.68 159.68ZM319.413 194V130.4H328.653L328.893 141.8C330.573 137.4 333.133 134.16 336.573 132.08C340.093 130 344.053 128.96 348.453 128.96C353.333 128.96 357.333 130.04 360.453 132.2C363.653 134.36 366.013 137.28 367.533 140.96C369.133 144.56 369.933 148.6 369.933 153.08V194H359.853V155.96C359.853 150.04 358.773 145.56 356.613 142.52C354.533 139.4 351.093 137.84 346.293 137.84C341.413 137.84 337.373 139.4 334.173 142.52C331.053 145.56 329.493 150.04 329.493 155.96V194H319.413ZM387.798 212V203.12H395.118C397.358 203.12 398.998 202.76 400.038 202.04C401.158 201.4 401.998 200.32 402.558 198.8L404.838 192.8H401.358L378.078 130.4H389.118L408.078 183.44L426.198 130.4H437.238L411.438 202.04C410.238 205.48 408.438 208 406.038 209.6C403.638 211.2 400.318 212 396.078 212H387.798ZM478.453 195.92C471.893 195.92 466.173 194.68 461.293 192.2C456.413 189.72 452.533 186.32 449.653 182C446.853 177.6 445.213 172.52 444.733 166.76L455.533 166.04C456.413 172.36 458.773 177.24 462.613 180.68C466.533 184.12 471.893 185.84 478.693 185.84C484.613 185.84 489.213 184.72 492.493 182.48C495.853 180.16 497.533 176.8 497.533 172.4C497.533 169.76 496.893 167.44 495.613 165.44C494.413 163.36 492.053 161.48 488.533 159.8C485.093 158.04 479.973 156.32 473.173 154.64C466.613 152.96 461.373 151.12 457.453 149.12C453.613 147.12 450.813 144.68 449.053 141.8C447.373 138.92 446.533 135.36 446.533 131.12C446.533 126.32 447.653 122.12 449.893 118.52C452.213 114.84 455.493 112 459.733 110C463.973 107.92 469.013 106.88 474.853 106.88C481.093 106.88 486.453 108.08 490.933 110.48C495.413 112.8 498.973 116 501.613 120.08C504.253 124.16 505.893 128.8 506.533 134L495.733 134.72C495.013 129.52 492.893 125.28 489.373 122C485.933 118.64 481.013 116.96 474.613 116.96C469.333 116.96 465.133 118.24 462.013 120.8C458.893 123.28 457.333 126.56 457.333 130.64C457.333 133.28 457.933 135.48 459.133 137.24C460.413 138.92 462.653 140.44 465.853 141.8C469.053 143.08 473.653 144.48 479.653 146C486.773 147.76 492.413 149.88 496.573 152.36C500.813 154.76 503.813 157.56 505.573 160.76C507.413 163.96 508.333 167.6 508.333 171.68C508.333 176.64 507.053 180.96 504.493 184.64C501.933 188.24 498.413 191.04 493.933 193.04C489.453 194.96 484.293 195.92 478.453 195.92ZM550.971 195.44C545.051 195.44 539.891 194.08 535.491 191.36C531.171 188.64 527.811 184.8 525.411 179.84C523.011 174.8 521.811 168.92 521.811 162.2C521.811 155.48 523.011 149.64 525.411 144.68C527.811 139.72 531.171 135.88 535.491 133.16C539.891 130.36 545.051 128.96 550.971 128.96C558.331 128.96 564.411 130.88 569.211 134.72C574.011 138.48 576.931 143.92 577.971 151.04L567.411 151.76C566.691 147.52 564.851 144.28 561.891 142.04C558.931 139.72 555.291 138.56 550.971 138.56C545.131 138.56 540.571 140.68 537.291 144.92C534.011 149.08 532.371 154.84 532.371 162.2C532.371 169.56 534.011 175.36 537.291 179.6C540.571 183.76 545.131 185.84 550.971 185.84C555.291 185.84 558.931 184.64 561.891 182.24C564.851 179.84 566.691 176.24 567.411 171.44L577.971 172.16C576.931 179.2 574.011 184.84 569.211 189.08C564.411 193.32 558.331 195.44 550.971 195.44ZM590.467 194V108.8H600.547V140.36C602.227 136.44 604.747 133.56 608.107 131.72C611.467 129.88 615.347 128.96 619.747 128.96C626.627 128.96 631.867 131.2 635.467 135.68C639.147 140.16 640.987 145.96 640.987 153.08V194H630.907V155.96C630.907 143.88 626.467 137.84 617.587 137.84C612.467 137.84 608.347 139.4 605.227 142.52C602.107 145.64 600.547 150.16 600.547 156.08V194H590.467ZM683.628 195.44C677.788 195.44 672.668 194.08 668.268 191.36C663.868 188.64 660.468 184.8 658.068 179.84C655.668 174.8 654.468 168.92 654.468 162.2C654.468 155.4 655.668 149.52 658.068 144.56C660.468 139.6 663.868 135.76 668.268 133.04C672.668 130.32 677.788 128.96 683.628 128.96C689.468 128.96 694.548 130.32 698.868 133.04C703.268 135.76 706.668 139.6 709.068 144.56C711.468 149.52 712.668 155.4 712.668 162.2C712.668 168.92 711.468 174.8 709.068 179.84C706.668 184.8 703.268 188.64 698.868 191.36C694.548 194.08 689.468 195.44 683.628 195.44ZM683.628 185.84C689.468 185.84 693.988 183.76 697.188 179.6C700.468 175.36 702.108 169.56 702.108 162.2C702.108 154.84 700.468 149.08 697.188 144.92C693.988 140.68 689.468 138.56 683.628 138.56C677.788 138.56 673.228 140.68 669.948 144.92C666.668 149.08 665.027 154.84 665.027 162.2C665.027 169.56 666.668 175.36 669.948 179.6C673.228 183.76 677.788 185.84 683.628 185.84ZM751.245 195.44C745.405 195.44 740.285 194.08 735.885 191.36C731.485 188.64 728.085 184.8 725.685 179.84C723.285 174.8 722.085 168.92 722.085 162.2C722.085 155.4 723.285 149.52 725.685 144.56C728.085 139.6 731.485 135.76 735.885 133.04C740.285 130.32 745.405 128.96 751.245 128.96C757.085 128.96 762.165 130.32 766.485 133.04C770.885 135.76 774.285 139.6 776.685 144.56C779.085 149.52 780.285 155.4 780.285 162.2C780.285 168.92 779.085 174.8 776.685 179.84C774.285 184.8 770.885 188.64 766.485 191.36C762.165 194.08 757.085 195.44 751.245 195.44ZM751.245 185.84C757.085 185.84 761.605 183.76 764.805 179.6C768.085 175.36 769.725 169.56 769.725 162.2C769.725 154.84 768.085 149.08 764.805 144.92C761.605 140.68 757.085 138.56 751.245 138.56C745.405 138.56 740.845 140.68 737.565 144.92C734.285 149.08 732.645 154.84 732.645 162.2C732.645 169.56 734.285 175.36 737.565 179.6C740.845 183.76 745.405 185.84 751.245 185.84ZM807.088 194C803.408 194 800.408 193.04 798.088 191.12C795.768 189.2 794.608 186.16 794.608 182V108.8H804.688V181.16C804.688 183.8 806.008 185.12 808.648 185.12H814.168V194H807.088Z" fill="white"/>
<rect y="39" width="224" height="224" rx="42" fill="black"/>
<path d="M112.589 75.2539C113.64 75.2659 114.68 75.4773 115.652 75.8799C116.653 76.2946 117.563 76.9027 118.329 77.6689L196.643 155.981C198.19 157.529 199.059 159.628 199.059 161.816C199.058 164.004 198.19 166.103 196.643 167.65L148.361 215.932L142.976 210.545C135.361 203.411 123.057 182.355 139.54 164.765C139.923 164.382 140.227 163.927 140.435 163.427C140.642 162.926 140.749 162.389 140.749 161.848C140.749 161.306 140.642 160.769 140.435 160.269C140.227 159.768 139.923 159.313 139.54 158.93L115.382 134.771C114.626 134.015 113.607 133.583 112.541 133.563C111.475 133.584 110.457 134.015 109.702 134.771L85.543 158.93C85.16 159.313 84.8557 159.768 84.6484 160.269C84.4413 160.769 84.335 161.306 84.335 161.848C84.335 162.389 84.4412 162.926 84.6484 163.427C84.8558 163.927 85.16 164.382 85.543 164.765C102.026 182.354 89.7235 203.411 82.1084 210.545L76.7217 215.932L28.4404 167.65C26.8935 166.103 26.0246 164.004 26.0244 161.816C26.0244 159.628 26.8934 157.529 28.4404 155.981L106.755 77.6689C107.521 76.9028 108.431 76.2946 109.432 75.8799C110.403 75.4775 111.442 75.2661 112.493 75.2539L112.494 75.252C112.51 75.252 112.526 75.2528 112.541 75.2529C112.557 75.2528 112.573 75.252 112.589 75.252V75.2539Z" fill="#0EA5E9"/>
</svg>
